<?xml version="1.0" encoding="UTF-8"?><svg id="b" xmlns="http://www.w3.org/2000/svg" viewBox="0 0 6433.16 1762"><defs><style>.j,.k,.l,.m{stroke-width:0px;}.k{fill:#da7010;}.n{opacity:.32;}.l{fill:#c20101;}.m{fill:#c50000;}</style></defs><g id="c"><g id="d"><circle class="m" cx="778.3" cy="1647.72" r="114.28"/><path class="m" d="M535.87,1490.67c-44.61-44.61-44.61-117.01,0-161.62l161.62-161.62c44.61-44.61,117.01-44.61,161.62,0l161.62,161.62c44.61,44.61,44.61,117.01,0,161.62-44.61,44.61-117.01,44.61-161.62,0-44.61-44.61-117.01-44.61-161.62,0-44.61,44.61-117.01,44.61-161.62,0Z"/><path class="k" d="M697.49,1490.67l161.62-161.62c44.61-44.61,117.01-44.61,161.62,0s44.61,117.01,0,161.62c-44.61,44.61-117.01,44.61-161.62,0-44.61-44.61-117.01-44.61-161.62,0Z"/></g><g id="e"><circle class="m" cx="114.3" cy="1264.36" r="114.28"/><path class="m" d="M129.1,975.89c16.33-60.93,79.03-97.14,139.97-80.81l220.77,59.16c60.93,16.33,97.14,79.03,80.81,139.97l-59.16,220.77c-16.33,60.93-79.03,97.14-139.97,80.81-60.93-16.33-97.14-79.03-80.81-139.97,16.33-60.93-19.88-123.64-80.81-139.97-60.93-16.33-97.14-79.03-80.81-139.97Z"/><path class="k" d="M209.91,1115.85l220.77,59.16c60.93,16.33,97.14,79.03,80.81,139.97-16.33,60.93-79.03,97.14-139.97,80.81-60.93-16.33-97.14-79.03-80.81-139.97,16.33-60.93-19.88-123.64-80.81-139.97Z"/></g><g id="f"><circle class="m" cx="114.3" cy="497.64" r="114.28"/><path class="m" d="M371.53,366.22c60.93-16.33,123.64,19.88,139.97,80.81l59.16,220.77c16.33,60.93-19.88,123.64-80.81,139.97l-220.77,59.16c-60.93,16.33-123.64-19.88-139.97-80.81-16.33-60.93,19.88-123.64,80.81-139.97,60.93-16.33,97.14-79.03,80.81-139.97-16.33-60.93,19.88-123.64,80.81-139.97Z"/><path class="k" d="M290.72,506.19l59.16,220.77c16.33,60.93-19.88,123.64-80.81,139.97-60.93,16.33-123.64-19.88-139.97-80.81-16.33-60.93,19.88-123.64,80.81-139.97,60.93-16.33,97.14-79.03,80.81-139.97Z"/></g><g id="g"><circle class="m" cx="778.3" cy="114.28" r="114.28"/><path class="m" d="M1020.73,271.33c44.61,44.61,44.61,117.01,0,161.62l-161.62,161.62c-44.61,44.61-117.01,44.61-161.62,0l-161.62-161.62c-44.61-44.61-44.61-117.01,0-161.62,44.61-44.61,117.01-44.61,161.62,0,44.61,44.61,117.01,44.61,161.62,0,44.61-44.61,117.01-44.61,161.62,0Z"/><path class="k" d="M859.11,271.33l-161.62,161.62c-44.61,44.61-117.01,44.61-161.62,0-44.61-44.61-44.61-117.01,0-161.62,44.61-44.61,117.01-44.61,161.62,0,44.61,44.61,117.01,44.61,161.62,0Z"/></g><g id="h"><circle class="m" cx="1442.3" cy="497.64" r="114.28"/><path class="m" d="M1427.5,786.11c-16.33,60.93-79.03,97.14-139.97,80.81l-220.77-59.16c-60.93-16.33-97.14-79.03-80.81-139.97l59.16-220.77c16.33-60.93,79.03-97.14,139.97-80.81,60.93,16.33,97.14,79.03,80.81,139.97-16.33,60.93,19.88,123.64,80.81,139.97,60.93,16.33,97.14,79.03,80.81,139.97Z"/><path class="k" d="M1346.69,646.15l-220.77-59.16c-60.93-16.33-97.14-79.03-80.81-139.97,16.33-60.93,79.03-97.14,139.97-80.81,60.93,16.33,97.14,79.03,80.81,139.97-16.33,60.93,19.88,123.64,80.81,139.97Z"/></g><g id="i"><circle class="m" cx="1442.3" cy="1264.36" r="114.28"/><path class="m" d="M1185.08,1395.78c-60.93,16.33-123.64-19.88-139.97-80.81l-59.16-220.77c-16.33-60.93,19.88-123.64,80.81-139.97l220.77-59.16c60.93-16.33,123.64,19.88,139.97,80.81,16.33,60.93-19.88,123.64-80.81,139.97-60.93,16.33-97.14,79.03-80.81,139.97,16.33,60.93-19.88,123.64-80.81,139.97Z"/><path class="k" d="M1265.89,1255.82l-59.16-220.77c-16.33-60.93,19.88-123.64,80.81-139.97,60.93-16.33,123.64,19.88,139.97,80.81,16.33,60.93-19.88,123.64-80.81,139.97-60.93,16.33-97.14,79.03-80.81,139.97Z"/></g><g class="n"><path class="j" d="M1832.48,1316.93v-219.32h16.3l89.84,194.04,88.95-194.04h16.9v219.02h-17.19v-178.66l-81.65,178.96h-14.31l-81.79-178.96v178.96h-17.05Z"/><path class="j" d="M2148.06,1316.93v-219.32h135.53v17.06h-118.02v83.31h99.76v17.06h-99.76v84.84h118.02v17.06h-135.53Z"/><path class="j" d="M2381.07,1316.93v-219.32h16.3l89.87,194.04,88.95-194.04h16.9v219.02h-17.22v-178.66l-81.62,178.96h-14.33l-81.77-178.96v178.96h-17.07Z"/><path class="j" d="M2784.22,1321.5c-21.82,0-40.16-4.85-54.97-14.55-14.84-9.7-26-23.12-33.51-40.29-7.52-17.16-11.28-36.96-11.28-59.4s3.76-42.23,11.28-59.4c7.52-17.16,18.67-30.58,33.51-40.28,14.82-9.7,33.15-14.55,54.97-14.55s40.13,4.85,54.9,14.55c14.77,9.7,25.92,23.12,33.44,40.28,7.52,17.17,11.28,36.97,11.28,59.4s-3.76,42.24-11.28,59.4c-7.52,17.17-18.67,30.59-33.44,40.29s-33.08,14.55-54.9,14.55ZM2784.22,1304.29c17.97.11,32.95-3.98,44.93-12.26,11.98-8.28,20.95-19.73,26.97-34.35,5.99-14.62,8.97-31.43,8.97-50.41s-2.98-35.79-8.97-50.4c-6.01-14.62-14.99-26.06-26.97-34.28-11.98-8.22-26.97-12.33-44.93-12.33-17.97-.11-32.93,3.95-44.86,12.19-11.93,8.22-20.88,19.67-26.87,34.34-5.99,14.67-9.09,31.51-9.29,50.49-.22,18.99,2.72,35.77,8.75,50.34,6.04,14.57,15.11,26,27.18,34.26,12.08,8.28,27.11,12.42,45.08,12.42Z"/><path class="j" d="M2975.21,1316.93v-219.32h82.71c2.11,0,4.44.07,6.91.23,2.5.15,5.12.48,7.86.99,10.96,1.72,20.37,5.65,28.25,11.8,7.86,6.15,13.87,13.86,18.04,23.15,4.17,9.3,6.26,19.52,6.26,30.7,0,16.14-4.32,30.2-12.95,42.18-8.63,11.98-20.66,19.59-36.11,22.84l-5.02,1.99h-78.45v85.44h-17.51ZM2992.72,1214.27h64.89c1.82,0,3.93-.1,6.33-.3,2.38-.21,4.78-.51,7.23-.91,7.93-1.62,14.53-4.85,19.79-9.68,5.29-4.83,9.24-10.63,11.88-17.44,2.64-6.8,3.98-13.97,3.98-21.47s-1.33-14.65-3.98-21.4c-2.64-6.75-6.6-12.54-11.88-17.36-5.26-4.83-11.86-8.05-19.79-9.68-2.45-.51-4.85-.86-7.23-1.07-2.4-.21-4.51-.3-6.33-.3h-64.89v99.6ZM3110.3,1316.93l-43.26-89.25,16.3-8.23,47.53,97.48h-20.56Z"/><path class="j" d="M3228.35,1316.93v-219.32h17.51v219.32h-17.51Z"/><path class="j" d="M3337.23,1316.93l77.7-219.32h21.78l77.67,219.32h-18.58l-74.64-210.18h8.83l-74.15,210.18h-18.6ZM3369.38,1261.79v-16.6h112.71v16.6h-112.71Z"/><path class="j" d="M3605.74,1316.93v-219.32h17.51v202.26h106.62v17.06h-124.13Z"/></g><path class="j" d="M1832.48,967.68V440.5h203.55c29.54,0,55.29,6.11,77.25,18.31,21.97,12.21,39.05,28.61,51.25,49.24,12.21,20.64,18.31,43.38,18.31,68.27,0,28.32-7.57,53.52-22.7,75.61-15.13,22.09-35.39,37.4-60.77,45.94l-.74-17.94c34.17,9.77,61.02,26.86,80.54,51.26,19.52,24.41,29.29,53.94,29.29,88.6,0,30.51-6.47,56.8-19.41,78.9-12.94,22.09-31.11,39.11-54.54,51.07-23.44,11.95-50.66,17.93-81.65,17.93h-220.39ZM1886.67,665.29h149c16.84,0,32.22-3.84,46.13-11.53,13.91-7.69,24.94-18.25,33.12-31.67,8.17-13.42,12.27-28.93,12.27-46.5,0-24.89-8.61-45.15-25.81-60.77-17.2-15.62-39.11-23.44-65.72-23.44h-149v173.9ZM1886.67,916.07h153.03c21.47,0,40.76-3.84,57.85-11.53,17.08-7.69,30.57-18.61,40.45-32.77,9.89-14.15,14.83-31.23,14.83-51.25s-4.51-37.09-13.54-52.72c-9.03-15.62-21.29-28.13-36.79-37.53-15.51-9.38-33.14-14.09-52.91-14.09h-162.91v199.89Z"/><path class="j" d="M2222.74,967.68v-395.39h48.33v95.19l-9.52-12.45c4.39-11.71,10.12-22.52,17.2-32.4,7.08-9.88,14.77-17.99,23.06-24.35,10.26-9.02,22.21-15.92,35.88-20.68,13.66-4.75,27.46-7.57,41.37-8.41,13.92-.86,138.07.18,149.54,3.1v50.52c-14.4-3.66-141.61-4.51-158.69-2.56-17.08,1.95-32.82,8.78-47.23,20.5-13.18,10.25-23.06,22.52-29.64,36.79-6.6,14.28-10.98,29.41-13.18,45.39-2.21,15.99-3.3,31.8-3.3,47.42v197.32h-53.82Z"/><path class="j" d="M2585.9,978.67c-39.3,0-72.86-8.91-100.68-26.72-27.81-17.81-49.18-42.47-64.07-73.95-14.89-31.49-22.32-67.61-22.32-108.37s7.55-77.85,22.7-109.1c15.12-31.23,36.67-55.58,64.61-73.04,27.95-17.45,61.19-26.17,99.76-26.17s73.27,8.84,101.23,26.54c27.94,17.69,49.29,42.22,64.07,73.58,14.76,31.35,22.14,67.43,22.14,108.18s-7.44,77.93-22.32,109.28c-14.9,31.37-36.37,55.83-64.44,73.4-28.07,17.57-61.63,26.36-100.67,26.36ZM2585.9,927.05c43.93,0,76.63-14.59,98.11-43.76,21.47-29.16,32.22-67.05,32.22-113.67s-10.8-85.9-32.4-114.23c-21.61-28.3-54.25-42.46-97.93-42.46-29.54,0-53.88,6.66-73.04,19.96-19.16,13.3-33.44,31.73-42.84,55.28-9.4,23.56-14.09,50.71-14.09,81.45,0,47.59,10.98,85.73,32.94,114.41,21.97,28.67,54.31,43.02,97.02,43.02Z"/><path class="j" d="M2751.38,618.43v-46.13h278.23v46.13h-278.23ZM3031.15,967.68c-22.2,4.63-64.7,6.46-86.29,5.49-21.61-.98-40.88-5.61-57.85-13.91-16.96-8.29-29.84-21.23-38.63-38.81-7.08-14.65-10.92-29.46-11.53-44.47-.61-15.01-.91-32.15-.91-51.45v-384.04h53.45v381.84c0,16.6.18,30.45.55,41.55.38,11.11,2.87,20.93,7.51,29.48,8.79,16.36,22.76,26.12,41.93,29.28,19.16,3.18,63.47,2.45,91.78-2.19v47.23Z"/><path class="j" d="M3029.6,967.68V440.5h48.69v297.64h5.49v229.54h-54.19ZM3315.52,967.68v-201.72c0-21.96-2.07-42.16-6.23-60.59-4.15-18.43-10.79-34.53-19.95-48.33-9.15-13.79-21-24.46-35.51-32.03-14.53-7.55-32.15-11.35-52.9-11.35-19.04,0-35.82,3.3-50.34,9.89-14.53,6.58-26.72,16.04-36.6,28.37-9.88,12.32-17.39,27.27-22.52,44.84-5.13,17.58-7.69,37.6-7.69,60.04l-38.07-8.41c0-40.51,7.07-74.55,21.23-102.14,14.15-27.58,33.68-48.45,58.57-62.61,24.89-14.15,53.45-21.23,85.66-21.23,23.68,0,44.36,3.66,62.05,10.98,17.7,7.32,32.71,17.2,45.03,29.66,12.32,12.44,22.27,26.66,29.84,42.64,7.57,15.99,13.06,32.95,16.48,50.89,3.41,17.94,5.13,35.83,5.13,53.64v217.46h-54.19Z"/><path class="j" d="M3573.62,978.67c-38.57,0-71.94-8.55-100.13-25.63-28.19-17.07-50.1-41.11-65.72-72.12-15.62-30.99-23.42-67.36-23.42-109.1s7.69-80.53,23.06-112.02c15.37-31.49,37.03-55.77,64.98-72.86,27.95-17.08,60.96-25.62,99.03-25.62s72.36,8.96,99.94,26.9c27.57,17.93,48.44,43.62,62.6,77.06,14.15,33.44,20.62,73.34,19.4,119.71h-54.91v-19.04c-.97-51.25-12.02-89.93-33.12-116.05-21.12-26.12-51.93-39.17-92.44-39.17s-74.99,13.79-97.57,41.37c-22.58,27.58-33.86,66.87-33.86,117.88s11.29,88.41,33.86,115.88c22.58,27.45,54.61,41.19,96.1,41.19,28.31,0,53.02-6.54,74.13-19.59,21.11-13.05,37.77-31.9,49.98-56.56l50.15,19.41c-15.62,34.41-38.62,61.07-69,79.99-30.38,18.91-64.75,28.37-103.06,28.37ZM3422.43,785v-45.03h302.03v45.03h-302.03Z"/><path class="j" d="M3775.69,967.68v-395.39h48.33v95.19l-9.52-12.45c4.39-11.71,10.12-22.52,17.2-32.4,7.08-9.88,14.77-17.99,23.06-24.35,10.26-9.02,22.21-15.92,35.88-20.68,13.66-4.75,27.46-7.57,41.37-8.41,13.92-.86,101.1.18,112.57,3.1v50.52c-14.4-3.66-104.64-4.51-121.72-2.56-17.08,1.95-32.82,8.78-47.23,20.5-13.18,10.25-23.06,22.52-29.64,36.79-6.6,14.28-10.98,29.41-13.18,45.39-2.21,15.99-3.3,31.8-3.3,47.42v197.32h-53.82Z"/><path class="j" d="M4113.97,978.3c-46.38,0-84.52-10.01-114.41-30.02-29.9-20.01-48.27-47.83-55.09-83.47l54.91-9.15c5.86,22.45,19.22,40.33,40.08,53.63,20.87,13.31,46.68,19.96,77.43,19.96s53.69-6.28,71.03-18.85c17.33-12.57,26-29.72,26-51.43,0-12.21-2.75-22.15-8.24-29.84-5.49-7.69-16.66-14.83-33.5-21.42-16.84-6.58-41.98-14.39-75.42-23.42-35.88-9.76-63.95-19.52-84.19-29.29-20.26-9.76-34.66-21.05-43.2-33.86-8.55-12.8-12.82-28.49-12.82-47.04,0-22.44,6.34-42.16,19.04-59.12,12.68-16.96,30.26-30.14,52.72-39.54,22.45-9.4,48.57-14.09,78.35-14.09s56.43,4.81,79.99,14.45c23.55,9.65,42.52,23.13,56.93,40.46,14.4,17.33,22.94,37.47,25.63,60.41l-54.91,9.88c-3.66-23.18-15.19-41.55-34.6-55.09-19.4-13.54-43.99-20.56-73.77-21.05-28.07-.74-50.89,4.57-68.46,15.92-17.57,11.35-26.36,26.42-26.36,45.21,0,10.5,3.16,19.47,9.52,26.9,6.34,7.46,17.87,14.46,34.59,21.05,16.72,6.6,40.58,13.8,71.57,21.61,36.36,9.28,64.93,19.04,85.67,29.29,20.75,10.25,35.51,22.32,44.29,36.24,8.79,13.91,13.18,31.11,13.18,51.61,0,37.34-13.85,66.7-41.55,88.05-27.7,21.36-65.84,32.03-114.4,32.03Z"/><path class="j" d="M4387.43,967.68v-395.39h53.82v395.39h-53.82Z"/><path class="j" d="M4492.13,967.68v-395.39h48.69v97.39h5.49v298h-54.19ZM4778.05,967.68v-201.72c0-21.96-2.07-42.16-6.23-60.59-4.15-18.43-10.79-34.53-19.95-48.33-9.15-13.79-21-24.46-35.51-32.03-14.53-7.55-32.15-11.35-52.9-11.35-19.04,0-35.82,3.3-50.34,9.89-14.53,6.58-26.72,16.04-36.6,28.37-9.88,12.32-17.39,27.27-22.52,44.84-5.13,17.58-7.69,37.6-7.69,60.04l-38.07-8.41c0-40.51,7.07-74.55,21.23-102.14,14.15-27.58,33.68-48.45,58.57-62.61,24.89-14.15,53.45-21.23,85.66-21.23,23.68,0,44.36,3.66,62.05,10.98,17.7,7.32,32.71,17.2,45.03,29.66,12.32,12.44,22.27,26.66,29.84,42.64,7.57,15.99,13.06,32.95,16.48,50.89,3.41,17.94,5.13,35.83,5.13,53.64v217.46h-54.19Z"/><path class="j" d="M4920.09,967.68l181.58-527.18h71.39l181.58,527.18h-56l-172.44-497.16h21.23l-171.32,497.16h-56.02ZM5001,839.91v-50.51h272.37v50.51h-272.37Z"/><path class="j" d="M5361.97,967.68v-395.39h48.33v95.19l-9.52-12.45c4.39-11.71,10.12-22.52,17.2-32.4,7.08-9.88,14.77-17.99,23.06-24.35,10.26-9.02,22.21-15.92,35.88-20.68,13.66-4.75,27.46-7.57,41.37-8.41,13.92-.86,37.22.18,48.69,3.1v50.52c-14.4-3.66-40.76-4.51-57.85-2.56-17.08,1.95-32.82,8.78-47.23,20.5-13.18,10.25-23.06,22.52-29.64,36.79-6.6,14.28-10.98,29.41-13.18,45.39-2.21,15.99-3.3,31.8-3.3,47.42v197.32h-53.82Z"/><path class="j" d="M5566.98,967.68v-395.39h48.33v97.39h5.86v298h-54.19ZM5803.49,967.68l.36-255.9c0-31.48-8.37-56.31-25.09-74.49-16.72-18.17-38.74-27.28-66.08-27.28s-49.42,9.34-66.26,28.01c-16.84,18.67-25.26,43.52-25.26,74.51l-32.22-17.58c0-25.38,5.98-48.14,17.93-68.27,11.95-20.13,28.31-36,49.06-47.59,20.75-11.59,44.3-17.39,70.66-17.39s47.53,5.37,67.17,16.1c19.65,10.74,35.09,26.36,46.32,46.86,11.23,20.5,16.84,45.39,16.84,74.69l-.36,268.34h-53.08ZM6038.89,967.68l.36-259.57c0-30.51-8.49-54.48-25.45-71.94-16.96-17.45-38.5-26.18-64.61-26.18-14.89,0-29.41,3.43-43.56,10.26-14.16,6.84-25.81,17.81-34.97,32.94-9.15,15.14-13.73,34.91-13.73,59.31l-31.85-9.15c-.73-28.31,4.81-53.08,16.66-74.32,11.83-21.23,28.19-37.76,49.06-49.6,20.87-11.83,44.49-17.75,70.84-17.75,39.77,0,71.62,12.26,95.54,36.79,23.92,24.53,35.88,57.67,35.88,99.4l-.36,269.81h-53.81Z"/><path class="j" d="M6277.21,978.3c-46.38,0-84.52-10.01-114.41-30.02-29.9-20.01-48.27-47.83-55.09-83.47l54.91-9.15c5.86,22.45,19.22,40.33,40.08,53.63,20.87,13.31,46.68,19.96,77.43,19.96s53.69-6.28,71.03-18.85c17.33-12.57,26-29.72,26-51.43,0-12.21-2.75-22.15-8.24-29.84-5.49-7.69-16.66-14.83-33.5-21.42-16.84-6.58-41.98-14.39-75.42-23.42-35.88-9.76-63.95-19.52-84.19-29.29-20.26-9.76-34.66-21.05-43.2-33.86-8.55-12.8-12.82-28.49-12.82-47.04,0-22.44,6.34-42.16,19.04-59.12,12.68-16.96,30.26-30.14,52.72-39.54,22.45-9.4,48.57-14.09,78.35-14.09s56.43,4.81,79.99,14.45c23.55,9.65,42.52,23.13,56.93,40.46,14.4,17.33,22.94,37.47,25.63,60.41l-54.91,9.88c-3.66-23.18-15.19-41.55-34.6-55.09-19.4-13.54-43.99-20.56-73.77-21.05-28.07-.74-50.89,4.57-68.46,15.92-17.57,11.35-26.36,26.42-26.36,45.21,0,10.5,3.16,19.47,9.52,26.9,6.34,7.46,17.87,14.46,34.59,21.05,16.72,6.6,40.58,13.8,71.57,21.61,36.36,9.28,64.93,19.04,85.67,29.29,20.75,10.25,35.51,22.32,44.29,36.24,8.79,13.91,13.18,31.11,13.18,51.61,0,37.34-13.85,66.7-41.55,88.05-27.7,21.36-65.84,32.03-114.4,32.03Z"/><circle class="l" cx="4414.34" cy="467.41" r="26.91"/></g></svg>